<svg width="501" height="793" viewBox="0 0 501 793" fill="none" xmlns="http://www.w3.org/2000/svg">
<path d="M1023.15 -166.232C1023.15 -166.232 400.557 351.218 193.187 523.02C-11.2617 692.441 83.0585 884.945 171.941 914.373" stroke="#00CB62" stroke-width="0.82" stroke-miterlimit="10"/>
<path d="M1008.28 -172.946C1008.28 -172.946 393.824 337.674 190.101 506.493C-19.1593 679.887 86.1459 872.783 177.829 901.706" stroke="#00CB62" stroke-width="0.95" stroke-miterlimit="10"/>
<path d="M993.422 -179.647C993.422 -179.647 387.109 324.143 186.996 489.952C-27.0599 667.317 89.2484 860.619 183.732 889.035" stroke="#00CB62" stroke-width="1.07" stroke-miterlimit="10"/>
<path d="M978.55 -186.36C978.55 -186.36 380.379 310.615 183.895 473.428C-34.9573 654.764 92.336 848.457 189.62 876.369" stroke="#00CB62" stroke-width="1.2" stroke-miterlimit="10"/>
<path d="M963.696 -193.061C963.696 -193.061 373.664 297.082 180.806 456.885C-42.8549 642.209 95.4235 836.295 195.523 863.698" stroke="#00CB62" stroke-width="1.32" stroke-miterlimit="10"/>
<path d="M948.824 -199.773C948.824 -199.773 366.949 283.552 177.701 440.346C-50.7526 629.656 98.5138 824.15 201.41 851.032" stroke="#00CB62" stroke-width="1.44" stroke-miterlimit="10"/>
<path d="M933.954 -206.473C933.954 -206.473 360.218 270.022 174.614 423.817C-58.6661 617.104 101.6 811.986 207.313 838.361" stroke="#00CB62" stroke-width="1.57" stroke-miterlimit="10"/>
<path d="M919.098 -213.189C919.098 -213.189 353.503 256.491 171.51 407.278C-66.5664 604.536 104.703 799.822 213.201 825.694" stroke="#00CB62" stroke-width="1.69" stroke-miterlimit="10"/>
<path d="M904.228 -219.887C904.228 -219.887 346.772 242.962 168.408 390.752C-74.4642 591.981 107.79 787.66 219.103 813.023" stroke="#00CB62" stroke-width="1.81" stroke-miterlimit="10"/>
<path d="M889.371 -226.604C889.371 -226.604 340.054 229.415 165.318 374.21C-82.3623 579.427 110.877 775.498 224.991 800.356" stroke="#00CB62" stroke-width="1.94" stroke-miterlimit="10"/>
<path d="M874.502 -233.302C874.502 -233.302 333.324 215.886 162.214 357.669C-90.2596 566.872 113.968 763.351 230.879 787.689" stroke="#00CB62" stroke-width="2.06" stroke-miterlimit="10"/>
<path d="M859.645 -240.018C859.645 -240.018 326.609 202.355 159.112 341.145C-98.1575 554.319 117.07 751.187 236.781 775.019" stroke="#00CB62" stroke-width="2.19" stroke-miterlimit="10"/>
<path d="M844.776 -246.717C844.776 -246.717 319.894 188.823 156.023 324.601C-106.058 541.749 120.158 739.024 242.669 762.351" stroke="#00CB62" stroke-width="2.31" stroke-miterlimit="10"/>
<path d="M829.904 -253.429C829.904 -253.429 313.164 175.296 152.922 308.078C-113.955 529.196 123.245 726.864 248.572 749.682" stroke="#00CB62" stroke-width="2.43" stroke-miterlimit="10"/>
<path d="M815.05 -260.131C815.05 -260.131 306.448 161.763 149.817 291.537C-121.853 516.641 126.333 714.701 254.46 737.014" stroke="#00CB62" stroke-width="2.56" stroke-miterlimit="10"/>
<path d="M800.178 -266.844C800.178 -266.844 299.718 148.235 146.727 274.995C-129.751 504.087 129.423 702.555 260.362 724.345" stroke="#00CB62" stroke-width="2.68" stroke-miterlimit="10"/>
<path d="M785.324 -273.546C785.324 -273.546 293.003 134.702 143.626 258.469C-137.649 491.533 132.525 690.389 266.247 711.662" stroke="#00CB62" stroke-width="2.8" stroke-miterlimit="10"/>
<path d="M770.451 -280.259C770.451 -280.259 286.269 121.159 140.521 241.929C-145.55 478.963 135.613 678.228 272.149 698.991" stroke="#00CB62" stroke-width="2.93" stroke-miterlimit="10"/>
<path d="M755.583 -286.958C755.583 -286.958 279.554 107.627 137.435 225.401C-153.447 466.409 138.7 666.066 278.037 686.324" stroke="#00CB62" stroke-width="3.05" stroke-miterlimit="10"/>
<path d="M740.725 -293.674C740.725 -293.674 272.839 94.0954 134.33 208.861C-161.345 453.855 141.787 653.904 283.925 673.657" stroke="#00CB62" stroke-width="3.18" stroke-miterlimit="10"/>
<path d="M725.856 -300.373C725.856 -300.373 266.109 80.5661 131.226 192.321C-169.243 441.3 144.874 641.742 289.827 660.986" stroke="#00CB62" stroke-width="3.3" stroke-miterlimit="10"/>
<rect width="501" height="68" fill="url(#paint0_linear_2012_176)"/>
<rect x="501" width="308" height="68" transform="rotate(90 501 0)" fill="url(#paint1_linear_2012_176)"/>
<rect x="10" y="524" width="321" height="273" fill="url(#paint2_linear_2012_176)"/>
<defs>
<linearGradient id="paint0_linear_2012_176" x1="251.498" y1="68" x2="251.498" y2="-2.10949e-06" gradientUnits="userSpaceOnUse">
<stop stop-color="#191919" stop-opacity="0"/>
<stop offset="1" stop-color="#191919"/>
</linearGradient>
<linearGradient id="paint1_linear_2012_176" x1="655.614" y1="68" x2="655.614" y2="-2.10949e-06" gradientUnits="userSpaceOnUse">
<stop stop-color="#191919" stop-opacity="0"/>
<stop offset="1" stop-color="#191919"/>
</linearGradient>
<linearGradient id="paint2_linear_2012_176" x1="149.249" y1="548.77" x2="254.662" y2="589.232" gradientUnits="userSpaceOnUse">
<stop stop-color="#191919" stop-opacity="0"/>
<stop offset="1" stop-color="#191919"/>
</linearGradient>
</defs>
</svg>
