<svg width="781" height="513" viewBox="0 0 781 513" fill="none" xmlns="http://www.w3.org/2000/svg">
<g clip-path="url(#clip0_2010_145)">
<path d="M966.935 -315.606C966.935 -315.606 388.928 164.79 196.407 324.29C6.59859 481.578 94.1646 660.298 176.683 687.618" stroke="#00CB62" stroke-width="0.82" stroke-miterlimit="10"/>
<path d="M953.128 -321.839C953.128 -321.839 382.677 152.216 193.542 308.945C-0.733383 469.923 97.0311 649.007 182.149 675.858" stroke="#00CB62" stroke-width="0.95" stroke-miterlimit="10"/>
<path d="M939.338 -328.061C939.338 -328.061 376.442 139.653 190.659 293.59C-8.06837 458.254 99.9113 637.713 187.629 664.095" stroke="#00CB62" stroke-width="1.07" stroke-miterlimit="10"/>
<path d="M925.531 -334.293C925.531 -334.293 370.194 127.094 187.78 278.249C-15.4005 446.599 102.778 626.423 193.095 652.335" stroke="#00CB62" stroke-width="1.2" stroke-miterlimit="10"/>
<path d="M911.741 -340.514C911.741 -340.514 363.96 114.531 184.912 262.89C-22.7325 434.944 105.644 615.131 198.575 640.572" stroke="#00CB62" stroke-width="1.32" stroke-miterlimit="10"/>
<path d="M897.934 -346.746C897.934 -346.746 357.726 101.969 182.03 247.536C-30.0643 423.29 108.513 603.856 204.042 628.813" stroke="#00CB62" stroke-width="1.44" stroke-miterlimit="10"/>
<path d="M884.129 -352.966C884.129 -352.966 351.477 89.4083 179.164 232.19C-37.4111 411.636 111.379 592.563 209.521 617.049" stroke="#00CB62" stroke-width="1.57" stroke-miterlimit="10"/>
<path d="M870.336 -359.2C870.336 -359.2 345.243 76.8463 176.282 216.835C-44.7459 399.968 114.259 581.27 214.987 605.29" stroke="#00CB62" stroke-width="1.69" stroke-miterlimit="10"/>
<path d="M856.531 -365.419C856.531 -365.419 338.994 64.2863 173.402 201.494C-52.078 388.312 117.126 569.979 220.467 593.526" stroke="#00CB62" stroke-width="1.81" stroke-miterlimit="10"/>
<path d="M842.738 -371.655C842.738 -371.655 332.757 51.7095 170.534 186.135C-59.4104 376.657 119.992 558.688 225.933 581.766" stroke="#00CB62" stroke-width="1.94" stroke-miterlimit="10"/>
<path d="M828.934 -377.873C828.934 -377.873 326.509 39.1497 167.652 170.78C-66.7425 365.002 122.861 547.411 231.399 570.006" stroke="#00CB62" stroke-width="2.06" stroke-miterlimit="10"/>
<path d="M815.141 -384.108C815.141 -384.108 320.275 26.5873 164.772 155.438C-74.0746 353.347 125.741 536.118 236.879 558.244" stroke="#00CB62" stroke-width="2.19" stroke-miterlimit="10"/>
<path d="M801.336 -390.327C801.336 -390.327 314.04 14.024 161.904 140.08C-81.4097 341.677 128.607 524.826 242.345 546.483" stroke="#00CB62" stroke-width="2.31" stroke-miterlimit="10"/>
<path d="M787.529 -396.559C787.529 -396.559 307.792 1.46545 159.025 124.739C-88.7417 330.024 131.474 513.537 247.826 534.721" stroke="#00CB62" stroke-width="2.43" stroke-miterlimit="10"/>
<path d="M773.739 -402.781C773.739 -402.781 301.558 -11.0984 156.142 109.383C-96.074 318.367 134.34 502.245 253.292 522.96" stroke="#00CB62" stroke-width="2.56" stroke-miterlimit="10"/>
<path d="M759.931 -409.013C759.931 -409.013 295.309 -23.6578 153.274 94.0247C-103.406 306.713 137.209 490.968 258.771 511.197" stroke="#00CB62" stroke-width="2.68" stroke-miterlimit="10"/>
<path d="M746.141 -415.235C746.141 -415.235 289.075 -36.2211 150.395 78.6827C-110.738 295.057 140.089 479.674 264.235 499.423" stroke="#00CB62" stroke-width="2.8" stroke-miterlimit="10"/>
<path d="M732.334 -421.468C732.334 -421.468 282.823 -48.7947 147.512 63.3274C-118.073 283.388 142.955 468.383 269.715 487.66" stroke="#00CB62" stroke-width="2.93" stroke-miterlimit="10"/>
<path d="M718.53 -427.687C718.53 -427.687 276.589 -61.3577 144.647 47.9827C-125.406 271.733 145.821 457.092 275.181 475.9" stroke="#00CB62" stroke-width="3.05" stroke-miterlimit="10"/>
<path d="M704.737 -433.922C704.737 -433.922 270.355 -73.9202 141.765 32.6274C-132.738 260.078 148.688 445.801 280.647 464.14" stroke="#00CB62" stroke-width="3.18" stroke-miterlimit="10"/>
<path d="M690.932 -440.141C690.932 -440.141 264.106 -86.4809 138.882 17.2711C-140.07 248.422 151.554 434.509 286.127 452.376" stroke="#00CB62" stroke-width="3.3" stroke-miterlimit="10"/>
<rect x="60" y="416" width="251" height="99" fill="url(#paint0_linear_2010_145)"/>
<rect x="37" width="658" height="68" fill="url(#paint1_linear_2010_145)"/>
</g>
<defs>
<linearGradient id="paint0_linear_2010_145" x1="164.5" y1="429" x2="259.04" y2="454.348" gradientUnits="userSpaceOnUse">
<stop stop-color="#191919" stop-opacity="0"/>
<stop offset="1" stop-color="#191919"/>
</linearGradient>
<linearGradient id="paint1_linear_2010_145" x1="367.311" y1="68" x2="367.311" y2="-2.10949e-06" gradientUnits="userSpaceOnUse">
<stop stop-color="#191919" stop-opacity="0"/>
<stop offset="1" stop-color="#191919"/>
</linearGradient>
<clipPath id="clip0_2010_145">
<rect width="781" height="515" fill="white"/>
</clipPath>
</defs>
</svg>
