<svg width="152" height="514" viewBox="0 0 152 514" fill="none" xmlns="http://www.w3.org/2000/svg">
<g clip-path="url(#clip0_2012_265)">
<g clip-path="url(#clip1_2012_265)">
<path d="M417.399 -116.001C417.399 -116.001 188.307 211.438 111.93 320.239C36.635 427.526 106.607 506.91 152.76 509.352" stroke="#00CB62" stroke-width="0.82" stroke-miterlimit="10"/>
<path d="M409.444 -117.261C409.444 -117.261 183.338 205.866 108.31 312.771C31.2408 422.576 106.494 500.718 153.915 502.554" stroke="#00CB62" stroke-width="0.95" stroke-miterlimit="10"/>
<path d="M401.498 -118.519C401.498 -118.519 178.379 200.296 104.678 305.299C25.842 417.619 106.388 494.521 155.076 495.752" stroke="#00CB62" stroke-width="1.07" stroke-miterlimit="10"/>
<path d="M393.543 -119.779C393.543 -119.779 173.414 194.731 101.051 297.835C20.448 412.67 106.275 488.329 156.232 488.955" stroke="#00CB62" stroke-width="1.2" stroke-miterlimit="10"/>
<path d="M385.597 -121.037C385.597 -121.037 168.454 189.161 97.4253 290.359C15.0524 407.72 106.161 482.135 157.392 482.152" stroke="#00CB62" stroke-width="1.32" stroke-miterlimit="10"/>
<path d="M377.642 -122.297C377.642 -122.297 163.495 183.593 93.7941 282.889C9.65777 402.771 106.052 475.95 158.547 475.355" stroke="#00CB62" stroke-width="1.44" stroke-miterlimit="10"/>
<path d="M369.689 -123.551C369.689 -123.551 158.528 178.026 90.1721 275.42C4.25532 397.824 105.938 469.756 159.707 468.553" stroke="#00CB62" stroke-width="1.57" stroke-miterlimit="10"/>
<path d="M361.742 -124.815C361.742 -124.815 153.57 172.458 86.5415 267.949C-1.1421 392.868 105.832 463.56 160.863 461.755" stroke="#00CB62" stroke-width="1.69" stroke-miterlimit="10"/>
<path d="M353.788 -126.069C353.788 -126.069 148.603 166.892 82.9123 260.483C-6.53811 387.918 105.718 457.367 162.023 454.953" stroke="#00CB62" stroke-width="1.81" stroke-miterlimit="10"/>
<path d="M345.84 -127.333C345.84 -127.333 143.641 161.316 79.2883 253.009C-11.9324 382.968 105.606 451.174 163.178 448.155" stroke="#00CB62" stroke-width="1.94" stroke-miterlimit="10"/>
<path d="M337.887 -128.587C337.887 -128.587 138.675 155.75 75.656 245.537C-17.328 378.018 105.495 444.988 164.332 441.357" stroke="#00CB62" stroke-width="2.06" stroke-miterlimit="10"/>
<path d="M329.939 -129.851C329.939 -129.851 133.716 150.181 72.0285 238.072C-22.7225 373.069 105.389 438.792 165.493 434.556" stroke="#00CB62" stroke-width="2.19" stroke-miterlimit="10"/>
<path d="M321.987 -131.104C321.987 -131.104 128.757 144.613 68.404 230.598C-28.1206 368.113 105.276 432.599 166.648 427.758" stroke="#00CB62" stroke-width="2.31" stroke-miterlimit="10"/>
<path d="M314.033 -132.365C314.033 -132.365 123.793 139.047 64.7774 223.133C-33.5141 363.163 105.164 426.406 167.811 420.956" stroke="#00CB62" stroke-width="2.43" stroke-miterlimit="10"/>
<path d="M306.087 -133.622C306.087 -133.622 118.832 133.478 61.1447 215.661C-38.9102 358.213 105.05 420.213 168.964 414.158" stroke="#00CB62" stroke-width="2.56" stroke-miterlimit="10"/>
<path d="M298.131 -134.882C298.131 -134.882 113.866 127.912 57.5199 208.187C-44.3052 353.264 104.94 414.027 170.125 407.357" stroke="#00CB62" stroke-width="2.68" stroke-miterlimit="10"/>
<path d="M290.186 -136.14C290.186 -136.14 108.908 122.343 53.8922 200.721C-49.6997 348.314 104.834 407.83 171.276 400.551" stroke="#00CB62" stroke-width="2.8" stroke-miterlimit="10"/>
<path d="M282.23 -137.4C282.23 -137.4 103.938 116.771 50.2604 193.25C-55.0984 343.358 104.72 401.638 172.437 393.75" stroke="#00CB62" stroke-width="2.93" stroke-miterlimit="10"/>
<path d="M274.279 -138.655C274.279 -138.655 98.98 111.201 46.6401 185.781C-60.4923 338.407 104.608 395.444 173.593 386.952" stroke="#00CB62" stroke-width="3.05" stroke-miterlimit="10"/>
<path d="M266.33 -139.918C266.33 -139.918 94.0201 105.632 43.0079 178.31C-65.888 333.458 104.494 389.252 174.746 380.154" stroke="#00CB62" stroke-width="3.18" stroke-miterlimit="10"/>
<path d="M258.378 -141.172C258.378 -141.172 89.0541 100.067 39.3763 170.839C-71.283 328.508 104.381 383.059 175.907 373.352" stroke="#00CB62" stroke-width="3.3" stroke-miterlimit="10"/>
</g>
<path d="M-208 -129H152V311H-208V-129Z" fill="url(#paint0_linear_2012_265)"/>
</g>
<defs>
<linearGradient id="paint0_linear_2012_265" x1="-28" y1="-6.95621" x2="-28" y2="320.635" gradientUnits="userSpaceOnUse">
<stop stop-color="#191919"/>
<stop offset="1" stop-color="#191919" stop-opacity="0"/>
</linearGradient>
<clipPath id="clip0_2012_265">
<rect width="152" height="514" fill="white"/>
</clipPath>
<clipPath id="clip1_2012_265">
<rect width="152" height="506" fill="white" transform="translate(0 6)"/>
</clipPath>
</defs>
</svg>
