<svg width="313" height="80" viewBox="0 0 313 80" fill="none" xmlns="http://www.w3.org/2000/svg">
<path d="M39.997 80C17.9392 80 0 62.0662 0 40.0153C0 17.9642 17.9392 0 39.997 0C62.0549 0 79.994 17.9336 79.994 39.9847C79.994 62.0358 62.0549 80 39.997 80ZM39.997 0.945475C18.763 0.945475 2.50172 18.7877 2.50172 39.9847C2.50172 61.1818 18.763 77.6819 39.997 77.6819C61.2311 77.6819 77.4924 61.2123 77.4924 40.0153C77.4924 18.8181 61.2311 0.945475 39.997 0.945475Z" fill="#00CB62"/>
<path d="M39.9973 76.2486C19.2514 76.2486 2.34948 59.9923 2.34948 40.0153C2.34948 20.0381 19.2514 3.75146 39.9973 3.75146C60.7432 3.75146 77.6452 20.0076 77.6452 39.9847C77.6452 59.9619 60.7432 76.2486 39.9973 76.2486ZM39.9973 4.69694C20.0751 4.69694 4.88172 20.8616 4.88172 40.0153C4.88172 59.1688 20.0751 73.9305 39.9973 73.9305C59.9196 73.9305 75.1129 59.1688 75.1129 39.9847C75.1129 20.8006 59.9196 4.69694 39.9973 4.69694Z" fill="#00CB62"/>
<path d="M39.9971 72.5277C20.563 72.5277 4.729 57.9489 4.729 40.0153C4.729 22.0817 20.5325 7.5029 39.9971 7.5029C59.4618 7.5029 75.2652 22.0817 75.2652 40.0153C75.2652 57.9489 59.4313 72.4972 39.9971 72.5277ZM39.9971 8.41794C21.3868 8.41794 7.23072 22.905 7.23072 39.9848C7.23072 57.0645 21.3868 70.1791 39.9971 70.1791C58.6075 70.1791 72.7636 57.0645 72.7636 39.9848C72.7636 22.905 58.6075 8.41794 39.9971 8.41794Z" fill="#00CB62"/>
<path d="M39.9971 68.7764C21.8444 68.7764 7.07808 55.8752 7.07808 40.0154C7.07808 24.1557 21.8444 11.224 39.9971 11.224C58.1498 11.224 72.9161 24.1253 72.9161 39.985C72.9161 55.8446 58.1498 68.7764 39.9971 68.7764ZM39.9971 12.1695C22.6681 12.1695 9.57981 24.9793 9.57981 40.0154C9.57981 55.0516 22.6681 66.489 39.9971 66.489C57.326 66.489 70.4143 55.0516 70.4143 40.0154C70.4143 24.9793 57.2955 12.1695 39.9971 12.1695Z" fill="#00CB62"/>
<path d="M39.997 65.0245C23.156 65.0245 9.4576 53.8008 9.4576 39.9845C9.4576 26.1684 23.156 14.9751 39.997 14.9751C56.8378 14.9751 70.5362 26.1989 70.5362 40.0151C70.5362 53.8312 56.8378 65.0245 39.997 65.0245ZM39.997 15.89C23.9798 15.89 11.9593 27.0224 11.9593 39.9845C11.9593 52.9468 23.9798 62.7066 39.997 62.7066C56.014 62.7066 68.0345 52.9468 68.0345 39.9845C68.0345 27.0224 56.014 15.89 39.997 15.89Z" fill="#00CB62"/>
<path d="M39.9971 61.3037C24.4682 61.3037 11.8071 51.7573 11.8071 40.0151C11.8071 28.2727 24.4377 18.7265 39.9971 18.7265C55.5568 18.7265 68.1874 28.2727 68.1874 40.0151C68.1874 51.7573 55.5263 61.3037 39.9971 61.3037ZM39.9971 19.6415C25.292 19.6415 14.3088 29.0963 14.3088 40.0151C14.3088 50.9338 25.292 59.0163 39.9971 59.0163C54.7025 59.0163 65.6855 50.9338 65.6855 40.0151C65.6855 29.0963 54.7025 19.6415 39.9971 19.6415Z" fill="#00CB62"/>
<path d="M39.997 57.5522C25.7495 57.5522 14.1866 49.6833 14.1866 39.9845C14.1866 30.2857 25.78 22.4169 39.997 22.4169C54.2141 22.4169 65.8076 30.2857 65.8076 39.9845C65.8076 49.6833 54.2446 57.5522 39.997 57.5522ZM39.997 23.3623C26.5731 23.3623 16.6884 31.1397 16.6884 39.9845C16.6884 48.8293 26.6036 55.2341 39.997 55.2341C53.3903 55.2341 63.3057 48.8293 63.3057 39.9845C63.3057 31.1397 53.3903 23.3623 39.997 23.3623Z" fill="#00CB62"/>
<path d="M39.997 53.8311C27.0612 53.8311 16.5357 47.6397 16.5357 40.015C16.5357 32.3901 27.0612 26.1987 39.997 26.1987C52.9326 26.1987 63.4583 32.3901 63.4583 40.015C63.4583 47.6397 52.9326 53.8311 39.997 53.8311ZM39.997 27.1137C27.885 27.1137 19.0373 33.2134 19.0373 39.9844C19.0373 46.7553 27.885 51.4827 39.997 51.4827C52.109 51.4827 60.9564 46.7553 60.9564 39.9844C60.9564 33.2134 52.109 27.1137 39.997 27.1137Z" fill="#00CB62"/>
<path d="M39.9973 50.0802C28.1598 50.0802 18.8851 45.6578 18.8851 40.0153C18.8851 34.373 28.1598 29.9506 39.9973 29.9506C51.8346 29.9506 61.1093 34.373 61.1093 40.0153C61.1093 45.6578 51.8346 50.0802 39.9973 50.0802ZM39.9973 30.8654C29.3801 30.8654 21.387 35.3489 21.387 40.0153C21.387 44.6817 29.3496 47.7927 39.9973 47.7927C50.6448 47.7927 58.6077 44.6817 58.6077 40.0153C58.6077 35.3489 50.6143 30.8654 39.9973 30.8654Z" fill="#00CB62"/>
<path d="M39.9971 46.3594C30.9055 46.3594 21.2646 44.1329 21.2646 40.0154C21.2646 35.8981 30.9055 33.6715 39.9971 33.6715C49.0888 33.6715 58.7295 35.8981 58.7295 40.0154C58.7295 44.1329 49.0888 46.3594 39.9971 46.3594ZM39.9971 34.5865C30.1427 34.5865 23.7664 37.6975 23.7664 39.985C23.7664 42.2725 30.1427 44.0109 39.9971 44.0109C49.8514 44.0109 56.2277 42.2725 56.2277 39.985C56.2277 37.6975 49.8514 34.5865 39.9971 34.5865Z" fill="#00CB62"/>
<path d="M39.997 37.3923C33.8952 37.3923 23.6443 37.7278 23.6443 39.9847C23.6443 42.2417 33.8952 42.5772 39.997 42.5772C46.0987 42.5772 56.3497 42.2417 56.3497 39.9847C56.3497 37.7278 46.0987 37.3923 39.997 37.3923ZM39.997 40.6863C34.841 40.6863 26.2069 40.5946 26.2069 39.9847C26.2069 39.3747 34.841 39.2832 39.997 39.2832C45.153 39.2832 53.7869 39.3747 53.7869 39.9847C53.7869 40.5946 45.153 40.6863 39.997 40.6863Z" fill="#00CB62"/>
<path d="M119.005 35.6809H101.159V23.3527H94.7563V54.4106H101.159V42.0821H119.005V54.4106H125.379V23.3527H119.005V35.6809Z" fill="white"/>
<path d="M188.67 23.323L181.08 35.6809H171.506V23.323H165.102V54.4106H171.506V42.0823H181.08L188.67 54.4106H196.555L187.011 38.8816L196.555 23.323H188.67Z" fill="white"/>
<path d="M146.071 23.323H129.707V29.7242H146.071C149.836 29.7242 153.156 32.0063 154.549 35.5032L154.638 35.7403H135.873V41.9934H154.638L154.549 42.2304C153.156 45.7275 149.836 48.0094 146.071 48.0094H129.707V54.4106H146.071C154.638 54.4106 161.605 47.4462 161.605 38.8816C161.605 30.317 154.668 23.323 146.071 23.323Z" fill="white"/>
<path d="M250.805 42.0823H267.554V35.6809H250.805V29.7539H273.691V23.323H244.402V54.4106H274.135V48.0094H250.805V42.0823Z" fill="white"/>
<path d="M208.68 23.323V29.7242H221.013V54.4106H227.415V29.7242H239.748V23.323H208.68Z" fill="white"/>
<path d="M313 23.323H305.113L297.525 35.6809H292.218L284.659 23.323H276.745L286.319 38.8816L276.745 54.4106H284.659L292.218 42.0823H297.525L305.113 54.4106H313L303.454 38.8816L313 23.323Z" fill="white"/>
<path d="M208.68 48.0094H202.277V54.4106H208.68V48.0094Z" fill="white"/>
</svg>
