<svg width="328" height="634" viewBox="0 0 328 634" fill="none" xmlns="http://www.w3.org/2000/svg">
<g clip-path="url(#clip0_2023_342)">
<path d="M540.65 -391.895L539.878 -390.099C390.555 -42.8955 184.968 244.259 -46.0169 428.248L-136.6 500.411" stroke="#00CB62" stroke-width="0.9" stroke-miterlimit="10"/>
<path d="M541.959 -390.795L541.232 -389.104C391.876 -41.822 193.818 251.763 -23.1709 447.51L-108.298 524.22" stroke="#00CB62" stroke-width="1.07" stroke-miterlimit="10"/>
<path d="M543.268 -389.695L542.586 -388.108C393.207 -40.7741 202.678 259.241 -0.338786 466.759L-79.9836 548.004" stroke="#00CB62" stroke-width="1.23" stroke-miterlimit="10"/>
<path d="M544.592 -388.584L543.965 -387.127C394.553 -39.715 211.564 266.704 22.5185 485.994L-51.6305 571.784" stroke="#00CB62" stroke-width="1.4" stroke-miterlimit="10"/>
<path d="M545.901 -387.484L545.319 -386.131C395.873 -38.6412 220.424 274.183 45.3394 505.27L-23.3278 595.593" stroke="#00CB62" stroke-width="1.57" stroke-miterlimit="10"/>
<path d="M547.209 -386.385L546.672 -385.136C397.204 -37.5938 229.284 281.66 68.1706 524.519L4.98516 619.376" stroke="#00CB62" stroke-width="1.74" stroke-miterlimit="10"/>
<path d="M548.519 -385.285L548.038 -384.166C398.536 -36.5459 238.156 289.113 91.0149 543.742L33.3114 643.133" stroke="#00CB62" stroke-width="1.91" stroke-miterlimit="10"/>
<path d="M549.829 -384.185L549.392 -383.17C399.857 -35.4722 247.017 296.591 113.847 562.992L61.6253 666.917" stroke="#00CB62" stroke-width="2.07" stroke-miterlimit="10"/>
<path d="M551.138 -383.086L550.746 -382.175C401.188 -34.4247 255.877 304.069 136.682 582.279L89.9418 690.738" stroke="#00CB62" stroke-width="2.24" stroke-miterlimit="10"/>
<path d="M552.447 -381.986L552.111 -381.205C402.52 -33.3773 264.738 311.546 159.525 601.502L118.267 714.494" stroke="#00CB62" stroke-width="2.41" stroke-miterlimit="10"/>
<path d="M553.77 -380.875L553.479 -380.198C403.854 -32.2919 273.612 319.036 182.371 620.763L146.594 738.289" stroke="#00CB62" stroke-width="2.58" stroke-miterlimit="10"/>
<path d="M555.079 -379.775L554.832 -379.203C405.185 -31.2443 282.472 326.514 205.203 640.012L174.911 762.11" stroke="#00CB62" stroke-width="2.75" stroke-miterlimit="10"/>
<path d="M556.388 -378.675L556.197 -378.233C406.517 -30.1963 291.343 333.966 228.035 659.262L203.225 785.894" stroke="#00CB62" stroke-width="2.92" stroke-miterlimit="10"/>
<path d="M557.697 -377.576L557.551 -377.237C407.837 -29.123 300.204 341.444 250.867 678.511L231.538 809.677" stroke="#00CB62" stroke-width="3.08" stroke-miterlimit="10"/>
<path d="M559.006 -376.476L558.905 -376.242C409.168 -28.0756 309.064 348.922 273.698 697.76L259.852 833.46" stroke="#00CB62" stroke-width="3.25" stroke-miterlimit="10"/>
<path d="M560.314 -375.376L560.27 -375.272C410.499 -27.0278 317.935 356.374 296.555 716.995L288.191 857.229" stroke="#00CB62" stroke-width="3.42" stroke-miterlimit="10"/>
<path d="M561.625 -374.276C411.821 -25.9538 326.796 363.852 319.377 736.271L316.494 881.038" stroke="#00CB62" stroke-width="3.59" stroke-miterlimit="10"/>
</g>
<defs>
<clipPath id="clip0_2023_342">
<rect width="328" height="634" fill="white"/>
</clipPath>
</defs>
</svg>
