<svg xmlns="http://www.w3.org/2000/svg">
  <symbol id="arrow" width="22" height="20" viewBox="0 0 22 20" fill="none" xmlns="http://www.w3.org/2000/svg">
    <path d="M2.5 10H17.5M17.5 10L11.25 4M17.5 10L11.25 16" stroke="currentColor" stroke-width="5" stroke-linecap="square" />
  </symbol>

  <symbol id="dropDownType1" xmlns="http://www.w3.org/2000/svg" width="16" height="16" viewBox="0 0 16 16" fill="none">
    <path d="M11.0476 7.47619L7.99999 10.5238L4.95237 7.47619" stroke="currentColor" stroke-linecap="round" stroke-linejoin="round"/>
  </symbol>

  <symbol id="linkPhone" xmlns="http://www.w3.org/2000/svg" width="24" height="24" viewBox="0 0 24 24" fill="none">
    <path d="M12.0001 6.99984C13.3262 6.99984 14.598 7.52664 15.5357 8.46435C16.4734 9.40207 17.0002 10.6739 17.0002 12M11.0002 3.06C11.332 3.01955 11.6659 2.99951 12.0001 3C14.387 3 16.6762 3.94821 18.364 5.63604C20.0519 7.32387 21.0001 9.61305 21.0001 12C21.0001 12.3344 20.9801 12.6677 20.9401 12.9998" stroke="currentColor" stroke-width="1.2" stroke-linecap="round" stroke-linejoin="round"/>
    <path d="M15.0001 21C13.4499 20.6304 11.9794 19.9832 10.6599 19.0896L12.4801 16.4803C12.7793 16.072 13.2223 15.7923 13.7196 15.6977C14.2169 15.6031 14.7316 15.7006 15.1599 15.9706C15.4901 16.1803 15.83 16.3704 16.1602 16.5605C16.4086 16.6819 16.6291 16.8536 16.8078 17.0646C16.9865 17.2756 17.1196 17.5213 17.1985 17.7863C17.2774 18.0513 17.3006 18.3298 17.2664 18.6042C17.2323 18.8786 17.1417 19.1429 17.0002 19.3805L16.3801 20.3309C16.269 20.5898 16.0684 20.8 15.8149 20.923C15.5615 21.046 15.2722 21.073 15.0001 21ZM3.67014 7.6704L4.66998 7.04976C4.9019 6.89925 5.1625 6.79845 5.43534 6.75374C5.70818 6.70902 5.98732 6.72135 6.25515 6.78996C6.52298 6.85856 6.77368 6.98194 6.99142 7.15232C7.20916 7.3227 7.38922 7.53637 7.52022 7.77984C7.7103 8.13984 7.8999 8.48016 8.11014 8.78016C8.38003 9.20849 8.47746 9.72323 8.38277 10.2206C8.28808 10.7179 8.00831 11.1608 7.5999 11.46L4.94022 13.3099C4.03947 12.0017 3.38221 10.5417 3.00006 9C2.94025 8.73506 2.97439 8.45756 3.09663 8.21502C3.21887 7.97247 3.4216 7.77994 3.67014 7.6704Z" stroke="currentColor" stroke-width="1.2" stroke-linecap="round" stroke-linejoin="round"/>
    <path d="M4.94019 13.3104C5.67536 14.4626 6.54109 15.5262 7.52019 16.4798C8.47402 17.459 9.5377 18.3247 10.6901 19.0598" stroke="currentColor" stroke-width="1.2" stroke-linecap="round" stroke-linejoin="round"/>
  </symbol>

  <symbol id="burger" xmlns="http://www.w3.org/2000/svg" width="20" height="20" viewBox="0 0 20 20" fill="none">
    <path d="M3.4375 5.9375H16.5625M3.4375 10H16.5625M3.4375 14.0625H16.5625" stroke="currentColor" stroke-width="1.2" stroke-miterlimit="10" stroke-linecap="round"/>
  </symbol>

  <symbol id="close" xmlns="http://www.w3.org/2000/svg" width="13" height="13" viewBox="0 0 13 13" fill="none">
    <path d="M0.600098 0.6L12.2668 12.2667M0.600098 12.2667L12.2668 0.6" stroke="white" stroke-width="1.2" stroke-linecap="round" stroke-linejoin="round"/>
  </symbol>

  <symbol id="download" xmlns="http://www.w3.org/2000/svg" width="22" height="22" viewBox="0 0 22 22" fill="none">
    <path d="M11 15.125V3.4375M6.1875 11L11 15.8125L15.8125 11M6.1875 18.5625H15.8125" stroke="currentColor" stroke-width="1.2" stroke-linecap="round" stroke-linejoin="round"/>
  </symbol>

  <symbol id="swiperBtnPrev" xmlns="http://www.w3.org/2000/svg" width="22" height="12" viewBox="0 0 22 12" fill="none">
    <path d="M20.8 6.69111C21.2418 6.69111 21.6 6.33294 21.6 5.89111C21.6 5.44929 21.2418 5.09111 20.8 5.09111L20.8 5.89111L20.8 6.69111ZM0.234303 5.32543C-0.0781173 5.63785 -0.0781174 6.14438 0.234302 6.4568L5.32547 11.548C5.63789 11.8604 6.14442 11.8604 6.45684 11.548C6.76926 11.2355 6.76926 10.729 6.45684 10.4166L1.93136 5.89111L6.45684 1.36563C6.76926 1.05321 6.76926 0.546677 6.45684 0.234258C6.14442 -0.0781616 5.63789 -0.0781616 5.32547 0.234258L0.234303 5.32543ZM20.8 5.89111L20.8 5.09111L0.799988 5.09111L0.799988 5.89111L0.799988 6.69111L20.8 6.69111L20.8 5.89111Z" fill="currentColor"/>
  </symbol>

  <symbol id="swiperBtnNext" xmlns="http://www.w3.org/2000/svg" width="34" height="12" viewBox="0 0 34 12" fill="none">
    <path d="M0.799988 5.09111C0.35816 5.09111 -1.21803e-05 5.44929 -1.2219e-05 5.89111C-1.22576e-05 6.33294 0.35816 6.69111 0.799988 6.69111L0.799988 5.89111L0.799988 5.09111ZM33.3657 6.4568C33.6781 6.14438 33.6781 5.63785 33.3657 5.32543L28.2745 0.234262C27.9621 -0.0781579 27.4556 -0.078158 27.1431 0.234261C26.8307 0.546681 26.8307 1.05321 27.1431 1.36563L31.6686 5.89112L27.1431 10.4166C26.8307 10.729 26.8307 11.2356 27.1431 11.548C27.4556 11.8604 27.9621 11.8604 28.2745 11.548L33.3657 6.4568ZM0.799988 5.89111L0.799988 6.69111L32.8 6.69112L32.8 5.89112L32.8 5.09112L0.799988 5.09111L0.799988 5.89111Z" fill="currentColor"/>
  </symbol>

  <symbol id="swiperBtnNextMin" xmlns="http://www.w3.org/2000/svg" width="22" height="12" viewBox="0 0 22 12" fill="none">
    <path d="M0.800049 5.09111C0.358221 5.09111 4.88548e-05 5.44929 4.88162e-05 5.89111C4.87776e-05 6.33294 0.358221 6.69111 0.800049 6.69111L0.800049 5.89111L0.800049 5.09111ZM21.3657 6.4568C21.6782 6.14438 21.6782 5.63785 21.3657 5.32543L16.2746 0.23426C15.9621 -0.078159 15.4556 -0.078159 15.1432 0.23426C14.8308 0.54668 14.8308 1.05321 15.1432 1.36563L19.6687 5.89111L15.1432 10.4166C14.8308 10.729 14.8308 11.2355 15.1432 11.548C15.4556 11.8604 15.9621 11.8604 16.2746 11.548L21.3657 6.4568ZM0.800049 5.89111L0.800049 6.69111L20.8 6.69112L20.8 5.89112L20.8 5.09112L0.800049 5.09111L0.800049 5.89111Z" fill="currentColor"/>
  </symbol>
</svg>