<svg width="933" height="565" viewBox="0 0 933 565" fill="none" xmlns="http://www.w3.org/2000/svg">
<path d="M1266.69 -460.552L1265.25 -458.15C986.014 6.43615 601.563 390.671 169.616 636.864L0.222865 733.423" stroke="#00CB62" stroke-width="0.9" stroke-miterlimit="10"/>
<path d="M1269.14 -459.081L1267.78 -456.817C988.483 7.8727 618.111 400.712 212.338 662.637L53.1498 765.282" stroke="#00CB62" stroke-width="1.07" stroke-miterlimit="10"/>
<path d="M1271.59 -457.609L1270.31 -455.485C990.974 9.27477 634.68 410.719 255.035 688.394L106.097 797.106" stroke="#00CB62" stroke-width="1.23" stroke-miterlimit="10"/>
<path d="M1274.07 -456.122L1272.89 -454.172C993.49 10.6921 651.297 420.706 297.778 714.132L159.118 828.926" stroke="#00CB62" stroke-width="1.4" stroke-miterlimit="10"/>
<path d="M1276.51 -454.651L1275.43 -452.84C995.959 12.1287 667.866 430.712 340.454 739.924L212.045 860.784" stroke="#00CB62" stroke-width="1.57" stroke-miterlimit="10"/>
<path d="M1278.96 -453.18L1277.96 -451.508C998.448 13.5302 684.434 440.717 383.149 765.681L264.991 892.608" stroke="#00CB62" stroke-width="1.74" stroke-miterlimit="10"/>
<path d="M1281.41 -451.708L1280.51 -450.21C1000.94 14.9325 701.025 450.689 425.867 791.404L317.96 924.397" stroke="#00CB62" stroke-width="1.91" stroke-miterlimit="10"/>
<path d="M1283.86 -450.236L1283.04 -448.878C1003.41 16.3693 717.594 460.696 468.564 817.161L370.908 956.221" stroke="#00CB62" stroke-width="2.07" stroke-miterlimit="10"/>
<path d="M1286.31 -448.765L1285.57 -447.546C1005.9 17.7711 734.163 470.702 511.265 842.969L423.861 988.095" stroke="#00CB62" stroke-width="2.24" stroke-miterlimit="10"/>
<path d="M1288.75 -447.293L1288.13 -446.249C1008.39 19.1726 750.732 480.708 553.982 868.691L476.829 1019.88" stroke="#00CB62" stroke-width="2.41" stroke-miterlimit="10"/>
<path d="M1291.23 -445.807L1290.68 -444.901C1010.88 20.6246 767.327 490.729 596.705 894.464L529.802 1051.72" stroke="#00CB62" stroke-width="2.58" stroke-miterlimit="10"/>
<path d="M1293.68 -444.335L1293.22 -443.569C1013.37 22.0267 783.896 500.736 639.401 920.221L582.755 1083.6" stroke="#00CB62" stroke-width="2.75" stroke-miterlimit="10"/>
<path d="M1296.12 -442.863L1295.77 -442.271C1015.86 23.4287 800.487 510.707 682.098 945.978L635.703 1115.42" stroke="#00CB62" stroke-width="2.92" stroke-miterlimit="10"/>
<path d="M1298.57 -441.392L1298.3 -440.939C1018.33 24.8651 817.056 520.713 724.794 971.735L688.65 1147.25" stroke="#00CB62" stroke-width="3.08" stroke-miterlimit="10"/>
<path d="M1301.02 -439.921L1300.83 -439.608C1020.82 26.2663 833.624 530.719 767.49 997.492L741.597 1179.07" stroke="#00CB62" stroke-width="3.25" stroke-miterlimit="10"/>
<path d="M1303.47 -438.449L1303.39 -438.31C1023.31 27.6687 850.215 540.691 810.234 1023.23L794.592 1210.87" stroke="#00CB62" stroke-width="3.42" stroke-miterlimit="10"/>
<path d="M1305.92 -436.978C1025.78 29.1055 866.784 550.697 852.909 1049.02L847.519 1242.73" stroke="#00CB62" stroke-width="3.59" stroke-miterlimit="10"/>
</svg>
