<svg width="592" height="512" viewBox="0 0 592 512" fill="none" xmlns="http://www.w3.org/2000/svg">
<path d="M806.461 -435.162L805.541 -433.024C627.782 -19.6982 383.042 322.143 108.067 541.172L0.233192 627.077" stroke="#00CB62" stroke-width="0.9" stroke-miterlimit="10"/>
<path d="M808.019 -433.853L807.153 -431.839C629.354 -18.4201 393.577 331.076 135.264 564.101L33.9261 655.421" stroke="#00CB62" stroke-width="1.07" stroke-miterlimit="10"/>
<path d="M809.578 -432.543L808.765 -430.654C630.939 -17.1729 404.125 339.978 162.445 587.016L67.6322 683.733" stroke="#00CB62" stroke-width="1.23" stroke-miterlimit="10"/>
<path d="M811.153 -431.22L810.407 -429.486C632.54 -15.9119 414.703 348.863 189.655 609.914L101.385 712.042" stroke="#00CB62" stroke-width="1.4" stroke-miterlimit="10"/>
<path d="M812.712 -429.911L812.019 -428.3C634.112 -14.6336 425.251 357.765 216.822 632.861L135.078 740.386" stroke="#00CB62" stroke-width="1.57" stroke-miterlimit="10"/>
<path d="M814.27 -428.603L813.63 -427.116C635.697 -13.3869 435.798 366.667 244.002 655.776L168.783 768.698" stroke="#00CB62" stroke-width="1.74" stroke-miterlimit="10"/>
<path d="M815.829 -427.293L815.256 -425.961C637.283 -12.1394 446.359 375.538 271.196 678.66L202.503 796.98" stroke="#00CB62" stroke-width="1.91" stroke-miterlimit="10"/>
<path d="M817.387 -425.984L816.868 -424.776C638.855 -10.8612 456.907 384.441 298.376 701.576L236.209 825.293" stroke="#00CB62" stroke-width="2.07" stroke-miterlimit="10"/>
<path d="M818.946 -424.675L818.479 -423.591C640.44 -9.61403 467.455 393.343 325.56 724.536L269.918 853.65" stroke="#00CB62" stroke-width="2.24" stroke-miterlimit="10"/>
<path d="M820.504 -423.366L820.104 -422.437C642.025 -8.36718 478.003 402.245 352.753 747.42L303.638 881.931" stroke="#00CB62" stroke-width="2.41" stroke-miterlimit="10"/>
<path d="M822.079 -422.043L821.732 -421.238C643.613 -7.07529 488.567 411.161 379.95 770.349L337.36 910.258" stroke="#00CB62" stroke-width="2.58" stroke-miterlimit="10"/>
<path d="M823.637 -420.734L823.344 -420.052C645.198 -5.828 499.115 420.063 407.13 793.265L371.069 938.615" stroke="#00CB62" stroke-width="2.75" stroke-miterlimit="10"/>
<path d="M825.196 -419.425L824.97 -418.898C646.783 -4.58064 509.676 428.934 434.31 816.18L404.776 966.928" stroke="#00CB62" stroke-width="2.92" stroke-miterlimit="10"/>
<path d="M826.754 -418.116L826.581 -417.713C648.355 -3.30279 520.224 437.836 461.491 839.095L438.482 995.24" stroke="#00CB62" stroke-width="3.08" stroke-miterlimit="10"/>
<path d="M828.312 -416.807L828.193 -416.528C649.94 -2.05594 530.771 446.738 488.67 862.01L472.187 1023.55" stroke="#00CB62" stroke-width="3.25" stroke-miterlimit="10"/>
<path d="M829.871 -415.497L829.818 -415.374C651.525 -0.808436 541.332 455.61 515.881 884.909L505.923 1051.85" stroke="#00CB62" stroke-width="3.42" stroke-miterlimit="10"/>
<path d="M831.43 -414.188C653.097 0.469936 551.881 464.512 543.048 907.855L539.616 1080.19" stroke="#00CB62" stroke-width="3.59" stroke-miterlimit="10"/>
</svg>
